<svg xmlns="http://www.w3.org/2000/svg" viewBox="0 0 939.2 251.6"><path opacity=".76" fill="#78C743" d="M277.5 44.5C244.8 6.4 199 .3 151.2 7c-26.1 3.7-56.1 4.2-82 15.8-10.7 1-20.1 11.4-26.6 21-8.7 6.3-16.6 13.6-23.1 22.3C.1 91.5-6.1 127.8 6.8 156c-2.7 16.5 1.8 33.8 16.4 49.6 25.6 27.7 90.3 54 128.1 43.6 44.2-12.2 75.3-62.2 108.5-90.5 39-33.1 52.4-73.5 17.7-114.2z"/><path d="M293.9 56.3c-5.3-8.2-13.8-13.1-21.9-18.5-20.8-13.9-44.2-23.6-68.6-29.2-25.4-5.8-51.7-7-77.5-4.4C99.8 6.8 69.3 10.7 47.7 27c-20.2 15.4-31.2 42.4-38 66.1-15.3 53.8-7.7 113.2 46.1 141 24.4 12.6 53.4 16.6 80.5 13.3 30.1-3.6 52.6-19.5 74-40.1 24-23 47.5-48.8 66.5-76.2 8.9-12.8 17.7-26.7 21.5-42 2.3-9.5 1.9-20.1-2.4-29.2-.5-1.2-1.2-2.5-2-3.6zm-46.7 98.4c-17.8 20.6-35.9 41.6-56.9 59C136.7 258 32 245.4 13.7 169.2c-7.9-32.8.8-71.5 15-101.4 14.7-30.9 37.2-44.2 70.1-50.6 65.6-12.9 135.3-2.7 186.8 42.1.1.4.2.7.5 1.1 20 28.9-21.3 73.9-38.9 94.3z"/><path d="M284.4 73.8c-.3-1-.6-2-1.1-2.9-1.1-3.5-3.5-6.6-7.2-8.3-2.3-1.1-6-.4-6.5 2.7-.2 1-.1 1.9-.1 2.8-.7 4.4-.4 8.7 1.3 12.9 1.6 3.8 4.5 8.7 9.3 8.1 4.5-.6 5.6-5.6 5.5-9.4 0-2.1-.5-4-1.2-5.9zm-205.5-14c-5.7 0-5.7 8.9 0 8.9s5.7-8.9 0-8.9zm39.2 36l-.8.8c-4 4 2.2 10.3 6.3 6.3l.8-.8c4-4.1-2.3-10.3-6.3-6.3zm-72.5 31.9v.8c0 5.7 8.9 5.7 8.9 0v-.8c0-5.7-8.9-5.7-8.9 0zm55.9 22.1v.8c0 5.7 8.9 5.7 8.9 0v-.8c0-5.8-8.9-5.8-8.9 0zM57.7 186c-5.7 0-5.7 8.9 0 8.9 5.7-.1 5.7-8.9 0-8.9zm70.3 21.1h-.8c-5.7 0-5.7 8.9 0 8.9h.8c5.7 0 5.7-8.9 0-8.9zm40.6-49.9c-5.7 0-5.7 8.9 0 8.9 5.7-.1 5.8-8.9 0-8.9zm49.1.8c-5.7 0-5.7 8.9 0 8.9 5.8 0 5.8-8.9 0-8.9zm-29.6-55.9c-5.7 0-5.7 8.9 0 8.9s5.7-8.9 0-8.9zm-36.4-49.9c-5.7 0-5.7 8.9 0 8.9 5.7-.1 5.7-8.9 0-8.9zm57.6-7.7h-.8c-5.7 0-5.7 8.9 0 8.9h.8c5.7 0 5.7-8.9 0-8.9zm32 68.8v.8c0 5.7 8.9 5.7 8.9 0v-.8c-.1-5.7-8.9-5.7-8.9 0z"/><path opacity=".76" fill="#78C743" d="M386.1 148.6c10.6-44.9 45.7-82.3 86.6-103.7 17.3-9.1 38.7-22.1 59-24.4C522 10.9 508 5.5 491 9.2c-.9.2-1.7.5-2.6.7-3.9-1.3-7.9-2.3-12.2-2.7C431.5 2.5 372 21.6 345.6 59.7c-24 34.7-30.7 87.6-11.6 125.7 7.5 15 19.3 26.5 32.8 33.8-17.9-23.8-11.7-63.9 19.3-70.6z"/><path opacity=".76" fill="#4F3E43" d="M596.5 49.2c-16.1-13.9-37.6-29.6-59.9-29.2-1.6 0-3.3.3-5 .5 22.1 21.9 21.7 65.8-17.1 74.3-41.6 9-45.1 74.6-65.3 104.6-20.7 30.8-55.1 34.3-82.4 19.7 7.1 9.4 17.8 16.2 32.5 17.4 7.2.6 14.4 1.1 21.6 1.7.8.2 1.5.5 2.3.6C480.8 246.7 533 217.6 569 173c26.1-32.4 71.5-85.9 27.5-123.8z"/><path opacity=".76" fill="#78C743" d="M449.2 199.4c20.2-30.1 23.7-95.6 65.3-104.6 38.8-8.4 39.2-52.3 17.1-74.3-20.2 2.3-41.7 15.3-59 24.4-40.9 21.5-76.1 58.8-86.6 103.7-30.9 6.7-37.2 46.8-19.2 70.5 27.4 14.6 61.7 11.2 82.4-19.7z"/><path d="M613.8 56.3c-5.3-8.2-13.8-13.1-21.9-18.5-20.8-13.9-44.2-23.6-68.6-29.2-25.4-5.8-51.7-7-77.5-4.4-26.2 2.6-56.6 6.5-78.2 22.9-20.2 15.4-31.2 42.4-38 66.1-15.3 53.8-7.7 113.2 46.1 141 24.4 12.6 53.4 16.6 80.5 13.3 30.1-3.6 52.6-19.5 74-40.1 24-23 47.5-48.8 66.5-76.2 8.9-12.8 17.7-26.7 21.5-42 2.3-9.5 1.9-20.1-2.4-29.2-.5-1.3-1.2-2.6-2-3.7zM567 154.7c-17.8 20.6-35.9 41.6-56.9 59-53.6 44.3-158.2 31.7-176.6-44.5-7.9-32.8.8-71.5 15-101.4 14.7-30.9 37.2-44.2 70.1-50.6 65.6-12.9 135.3-2.7 186.8 42.1.1.4.2.7.5 1.1 20 28.9-21.3 73.9-38.9 94.3z"/><path d="M604.3 73.8c-.3-1-.6-2-1.1-2.9-1.1-3.5-3.5-6.6-7.2-8.3-2.3-1.1-6-.4-6.5 2.7-.2 1-.1 1.9-.1 2.8-.7 4.4-.4 8.7 1.3 12.9 1.6 3.8 4.5 8.7 9.3 8.1 4.5-.6 5.6-5.6 5.5-9.4 0-2.1-.5-4-1.2-5.9zm-205.6-14c-5.7 0-5.7 8.9 0 8.9s5.7-8.9 0-8.9zm39.2 36l-.8.8c-4 4 2.2 10.3 6.3 6.3l.8-.8c4-4.1-2.2-10.3-6.3-6.3zm-72.4 31.9v.8c0 5.7 8.9 5.7 8.9 0v-.8c0-5.7-8.9-5.7-8.9 0zm55.9 22.1v.8c0 5.7 8.9 5.7 8.9 0v-.8c0-5.8-8.9-5.8-8.9 0zM377.6 186c-5.7 0-5.7 8.9 0 8.9 5.7-.1 5.7-8.9 0-8.9zm70.2 21.1h-.8c-5.7 0-5.7 8.9 0 8.9h.8c5.8 0 5.8-8.9 0-8.9zm40.7-49.9c-5.7 0-5.7 8.9 0 8.9 5.7-.1 5.7-8.9 0-8.9zm49.1.8c-5.7 0-5.7 8.9 0 8.9s5.7-8.9 0-8.9zM508 102.1c-5.7 0-5.7 8.9 0 8.9s5.7-8.9 0-8.9zm-36.4-49.9c-5.7 0-5.7 8.9 0 8.9 5.7-.1 5.7-8.9 0-8.9zm57.5-7.7h-.8c-5.7 0-5.7 8.9 0 8.9h.8c5.7 0 5.8-8.9 0-8.9zm32 68.8v.8c0 5.7 8.9 5.7 8.9 0v-.8c0-5.7-8.9-5.7-8.9 0z"/><path opacity=".76" fill="#4F3E43" d="M899 34.3c-20-11.9-43.6-20.3-67.4-23.1C814.4 1.9 793.1-2 768 .9c-31.8 3.6-67.5 7.5-92.4 29.8-23.9 21.4-36.8 58.9-41.5 89.7-9.3 61.2 23.7 105.4 75.9 117 6.9 3.5 14.2 6.4 22 8.7 63.5 18.8 119.6-29.3 158.1-74.3 35.1-40.9 70-101.3 8.9-137.5z"/><path d="M933.3 56.3c-5.3-8.2-13.8-13.1-21.9-18.5-20.8-13.9-44.2-23.6-68.6-29.2-25.4-5.8-51.7-7-77.5-4.4-26.2 2.6-56.6 6.5-78.2 22.9-20.2 15.4-31.2 42.4-38 66.1-15.3 53.8-7.7 113.2 46.1 141 24.4 12.6 53.4 16.6 80.5 13.3 30.1-3.6 52.6-19.5 74-40.1 24-23 47.5-48.8 66.5-76.2 8.9-12.8 17.7-26.7 21.5-42 2.3-9.5 1.9-20.1-2.4-29.2-.5-1.3-1.3-2.6-2-3.7zm-46.8 98.4c-17.8 20.6-35.9 41.6-56.9 59C776 258 671.4 245.4 653 169.2c-7.9-32.8.8-71.5 15-101.4 14.7-30.9 37.2-44.2 70.1-50.6 65.6-12.9 135.3-2.7 186.8 42.1.1.4.2.7.5 1.1 20 28.9-21.3 73.9-38.9 94.3z"/><path d="M923.8 73.8c-.3-1-.6-2-1.1-2.9-1.1-3.5-3.5-6.6-7.2-8.3-2.3-1.1-6-.4-6.5 2.7-.2 1-.1 1.9-.1 2.8-.7 4.4-.4 8.7 1.3 12.9 1.6 3.8 4.5 8.7 9.3 8.1 4.5-.6 5.6-5.6 5.5-9.4 0-2.1-.5-4-1.2-5.9zm-205.6-14c-5.7 0-5.7 8.9 0 8.9s5.7-8.9 0-8.9zm39.2 36l-.8.8c-4 4 2.2 10.3 6.3 6.3l.8-.8c4-4.1-2.3-10.3-6.3-6.3zM685 127.7v.8c0 5.7 8.9 5.7 8.9 0v-.8c-.1-5.7-8.9-5.7-8.9 0zm55.9 22.1v.8c0 5.7 8.9 5.7 8.9 0v-.8c-.1-5.8-8.9-5.8-8.9 0zM697 186c-5.7 0-5.7 8.9 0 8.9 5.7-.1 5.7-8.9 0-8.9zm70.3 21.1h-.8c-5.7 0-5.7 8.9 0 8.9h.8c5.7 0 5.7-8.9 0-8.9zm40.7-49.9c-5.7 0-5.7 8.9 0 8.9 5.7-.1 5.7-8.9 0-8.9zm49.1.8c-5.7 0-5.7 8.9 0 8.9s5.7-8.9 0-8.9zm-29.7-55.9c-5.7 0-5.7 8.9 0 8.9 5.8 0 5.8-8.9 0-8.9zM791 52.2c-5.7 0-5.7 8.9 0 8.9 5.7-.1 5.7-8.9 0-8.9zm57.6-7.7h-.8c-5.7 0-5.7 8.9 0 8.9h.8c5.7 0 5.7-8.9 0-8.9zm32 68.8v.8c0 5.7 8.9 5.7 8.9 0v-.8c0-5.7-8.9-5.7-8.9 0z"/></svg>