<svg xmlns="http://www.w3.org/2000/svg" viewBox="0 0 330.1 543.3"><path opacity=".76" fill="#4F3E43" d="M289.1 322.7c-20.4-12.1-44.5-20.7-68.8-23.6-17.6-9.5-39.4-13.5-64.9-10.5-32.4 3.7-68.9 7.7-94.4 30.5-24.4 21.9-37.6 60.1-42.4 91.6C9 473.2 42.8 518.4 96.1 530.2c7 3.5 14.5 6.5 22.5 8.9 64.9 19.2 122.2-29.9 161.5-75.9 35.7-41.8 71.4-103.5 9-140.5z"/><path d="M326.2 349c-.6-1.4-1.4-2.7-2.2-3.9-5.4-8.3-14-13.3-22.4-18.9-21.3-14.2-45.2-24.1-70.1-29.8-4.5-1-9-1.8-13.5-2.5 4.9-8.9 9-18 12.9-25.3 2.8-5.1-5-9.7-7.8-4.6-4.4 8.1-8.7 16.2-13.1 24.2-.8 1.4-1.6 2.9-2.4 4.3-2.7-.3-5.4-.7-8.2-.9 3.4-5.8 6.1-12 8.5-16.6 2.6-5.2-5.2-9.8-7.8-4.6-3.2 6.4-6.4 13-10.4 19-.4.5-.8.9-1.1 1.4-10.2-.4-20.3-.2-30.5.6-11.9-6-23.4-13.7-34.9-20.3-5.1-2.9-9.6 4.9-4.6 7.8 8 4.6 16.1 9.2 24.1 13.8-3 .3-5.9.7-8.9 1.1-11.7-9.2-22.6-20-32.8-29.1-4.3-3.9-10.8 2.5-6.4 6.4 9.4 8.4 19.1 16.4 28.9 24.3-18.4 3.2-36.6 8.7-51 19.6-20.7 15.7-31.9 43.3-38.8 67.5-15.7 55-7.9 115.6 47.1 144.1 25 12.9 54.5 17 82.3 13.6 30.8-3.7 53.8-20 75.6-40.9 24.6-23.5 48.5-49.9 68-77.8 9.1-13.1 18.1-27.2 21.9-42.9 2.5-9.5 2-20.3-2.4-29.6zm-169.8-48.2c6.3 4 13.7 8.9 20.9 8.6 6.5-.2 11.8-3.9 16.1-9 3 .2 6 .6 8.9.9-8.1 11.5-16.1 16.5-31 12.9-9.2-2.2-17.9-6.7-26.3-12.2 3.9-.4 7.6-.9 11.4-1.2zm119.9 144.9c-18.2 21-36.6 42.5-58.1 60.3-54.7 45.3-161.7 32.4-180.4-45.5-8.1-33.5.8-73 15.3-103.6 15-31.6 38-45.1 71.6-51.7 3-.6 6-1 9-1.5 2.6 2 5.1 4.1 7.7 6 10.9 8.1 23.2 18.1 37.7 17.2 15.1-.9 25.6-11.5 33.9-24.4 2.5.4 4.9.9 7.4 1.3-4 4-7.5 8.3-10.4 13.1-3 5 4.8 9.6 7.8 4.6 2.8-4.6 6.1-8.6 10-12.4 1.2-1.1 1.5-2.5 1.3-3.7 31.4 6.9 61.1 20.6 86.5 42.7.1.4.2.8.5 1.2 20.4 29.6-21.8 75.5-39.8 96.4z"/><path d="M314.4 363.1c-.3-1-.6-2-1.1-2.9-1.1-3.6-3.6-6.8-7.3-8.5-2.4-1.1-6.1-.4-6.7 2.7-.2 1-.1 1.9-.1 2.9-.7 4.5-.4 8.9 1.3 13.2 1.6 3.9 4.6 8.9 9.5 8.2 4.6-.6 5.8-5.7 5.6-9.6 0-2.2-.5-4.1-1.2-6zm-210-14.4c-5.8 0-5.8 9.1 0 9.1s5.8-9.1 0-9.1zm40 36.8l-.9.9c-4.1 4.1 2.3 10.5 6.4 6.4l.9-.9c4.2-4.1-2.3-10.5-6.4-6.4zm-74 32.7v.9c0 5.8 9.1 5.8 9.1 0v-.9c0-5.9-9.1-5.9-9.1 0zm57.1 22.4v.9c0 5.8 9.1 5.8 9.1 0v-.9c0-5.8-9.1-5.8-9.1 0zm-44.8 37c-5.8 0-5.8 9.1 0 9.1 5.9 0 5.9-9.1 0-9.1zm71.8 21.7h-.9c-5.8 0-5.8 9.1 0 9.1h.9c5.9-.1 5.9-9.1 0-9.1zm41.6-51.1c-5.8 0-5.8 9.1 0 9.1s5.8-9.1 0-9.1zm50.1.9c-5.8 0-5.8 9.1 0 9.1 5.9 0 5.9-9.1 0-9.1zM216 392c-5.8 0-5.8 9.1 0 9.1s5.8-9.1 0-9.1zm-37.2-51c-5.8 0-5.8 9.1 0 9.1 5.8-.1 5.8-9.1 0-9.1zm58.8-7.8h-.9c-5.8 0-5.8 9.1 0 9.1h.9c5.8-.1 5.8-9.1 0-9.1zm32.7 70.2v.9c0 5.8 9.1 5.8 9.1 0v-.9c-.1-5.8-9.1-5.8-9.1 0zM225.7 55.1C219 40 205.8 19.8 191.6 10.8c-10.4-6.6-18.7-2.4-27.2 4.5-5.4-4.5-11.3-8.3-17.8-10.9-20.8-8.3-28.3-3.8-37.5 13.7-1.8-1.1-3.5-2.3-5.3-3.4C94 9.2 75.8-3.8 63.7 1c-12.9 5.1-6.9 23.1-26.4 18.4-11.4-2.7-17-11.1-28.6-1.4-10.9 9.2-9.2 24.2-7.5 36.7.8 5.7 9.6 3.3 8.8-2.5C3.3 2.4 27.6 25.9 38.1 30.1c1.9.8 3.2 1.5 5.1 1.9 5.1.8 10.1.8 14.3-3 4.7-4.3 2.6-11.4 6.2-15.2 9.3-10 32.7 6.9 41.8 12.5 20.4 12.5 43.3 32.7 58.3 51.6 2.6 3.2 4.4 6.7 5.7 10.4l-.1.1c-.5-.1-1-.1-1.6 0-8.2 1.4-16.3 2.8-24.5 4.3-5.7 1-3.3 9.7 2.4 8.7 8.2-1.4 16.3-2.8 24.5-4.3l.9-.3c.1 0 .2.1.4.1.3 2.1.3 4.3.3 6.5-.4 0-.8-.1-1.3 0-4 .7-7.8 1.7-11.5 3.3-5.3 2.2-3 10.9 2.4 8.7 3.1-1.2 6.2-2.1 9.4-2.8-4.3 21.9-21.4 43.9-39.5 52-.8.4-1.3.9-1.7 1.4-1.7-2.9-3.4-5.8-5.2-8.6-4.5-7.3-9.3-14.4-14.1-21.6 7.1-5.8 16.7-16.7 11.7-25.2-2.6-4.5-9-5.5-13.5-7.2-7.7-3.1-15.3-6.7-22.6-10.6-1.4-.7-2.7-.7-3.8-.2-3.6-5.9-7.1-11.8-10.3-17.9-2.7-5.2-10.5-.6-7.8 4.6 14.7 28 33.7 53.3 50.6 79.9-5.3 3.3-10.2 7-14.9 11.2-4.4 3.9 2.1 10.3 6.4 6.4 4.1-3.7 8.6-7 13.3-9.9l3 5.1c-1.4-.5-3-.4-4.5.8-1.5 1.3-2.9 2.5-4.4 3.8-4.4 3.8 2 10.2 6.4 6.4 1.5-1.3 2.9-2.5 4.4-3.8.7-.6 1-1.2 1.2-1.8.9 1.6 1.9 3.2 2.8 4.8 9.4 16.9 18.5 34 29 50.2 2.2 3.4 4.4 6.8 6.8 10.1-1.5-.6-3.2-.6-4.8.8-3.7 3.3-10.4 8.4-11.6 13.5-1.1 5.1 5.2 9.4 8.3 12.4 3.9 3.9 8.3 7.1 14.1 6.7 3.9-.2 7.2-2.1 10.2-4.4-.5 9.6-7.3 12.3-20.2 8.2-.3-.8-.8-1.5-1.7-2.1-15.5-9.8-26.5-28.1-37.5-42.3-10.4-13.5-20.6-27.1-30.7-40.7-20.2-27.4-39.9-55.1-59.1-83.2-3.3-4.8-11.1-.3-7.8 4.6 22.4 32.8 45.4 65.1 69.3 96.9 16.9 22.6 34.7 53.8 58.3 70.4 0 1.4.6 2.7 2.2 3.6 12.5 6.4 28.6 5.5 37.1-7.3 11.3-17.1-8.3-28.2-17.4-40.4-15.3-20.7-26.7-43.9-39.3-66.3.8.1 1.5 0 2.4-.4 10.2-4.6 18.3-11.4 25-19.7.7.9 1.8 1.5 3.3 1.5 15.1.4 26.5-8.5 33.9-20.6 1.3 1.2 3.2 1.7 5.1.7 30.3-15.2 35.4-50.3 22.5-79.3zm-120.3 73.1c-5.3-7.8-10.4-15.6-15.5-23.5 5 2.4 10 4.7 15.2 6.8 4.6 1.8 10.2 1.7 7.7 7.7-1.5 3.6-4.4 6.6-7.4 9zm61.9 118.3c.9 1.1 1.6 2.3 2.5 3.4 2.8 3.5 5.9 6.9 9.2 10 .1.3.1.6.2.9-.1.1-.2.1-.3.2-4.2 4-8.9 8.3-14.3 3.7-1.7-1.4-5.3-4.6-7-6.6 2.3-3.2 5.6-6 8.3-8.4 1.1-1 1.5-2.1 1.4-3.2zm-1-101.5c1.2-1.9 2.4-3.6 3.4-5.6 6.3-12.3 17.2-37 14.3-51.1-2.8-13.3-25.1-27.9-34.1-36.7-10.7-10.4-21.2-20.1-33-28.5 16.7-32 51.7 5.8 62.8 25.3 6.9 12 12 25 15.1 38.5 4.4 19.2 1 57-28.5 58.1zm36.5-21c.6-1.5 1.2-2.9 1.7-4.4 7.2-22-3.7-50.1-13.7-69.7-5.1-10-11.7-20-19.7-28.4 26.1-15.1 80.2 72.4 31.7 102.5z"/><path d="M95.3 157.9c-1.4 2-3.1 3.6-5.1 4.9-4.9 3.1-.4 11 4.6 7.8 3.4-2.2 6.1-4.8 8.4-8.2 3.2-4.7-4.7-9.3-7.9-4.5zm66.3-79.7h-12c-5.8 0-5.8 9.1 0 9.1h12c5.8 0 5.9-9.1 0-9.1zM147.1 317c-9.1-1.7-18.3-2.7-27.6-3.1-5.8-.2-5.8 8.9 0 9.1 8.5.3 16.9 1.2 25.2 2.7 5.7 1.1 8.1-7.6 2.4-8.7z"/></svg>