<svg xmlns="http://www.w3.org/2000/svg" viewBox="0 0 347.4 342.6"><path fill="#9E765D" d="M271.8 70.3c-2.9-4.4-7.6-8.4-14.5-11.6-9.3-4.3-20.6-8.5-31-6.8-2.4.4-4.3 1.1-6 2 1.1-4.1 1-8.3 0-12.2.8-.5 1.5-1.2 2.2-2.1 1.8-2.6 1.4-5.3 1.5-8.3 0-2.8 1.3-5.1 3.3-7 5.2-4.9-2.6-12.7-7.9-7.9-1.5 1.4-2.8 3.1-3.9 4.9-2.3-1.5-5.3-2-8.1-.5-2 1.1-3.2 2.6-3.9 4.4-2.4-.6-4.9-.8-7.3-.9-.4 0-.8 0-1.1.1-4.1-2.5-8.6-2.9-12.7-1.9-.7-.1-1.3-.1-2-.2.6-1.7.8-3.4.5-5.2-.2-1.2-.6-2.2-1.2-3.2l.6-.6c5.1-5-2.8-12.9-7.9-7.9-4 4-15.7 14.1-14 21-6.9 4.1-12.2 10.7-14.3 19.1-.2.6-.2 1.1-.3 1.7l-1.8-.3c-20.9-1.6-39.5 3.4-56.6 15.5-14.2 10-9 29.4 2.4 35.3-7.9 9.3-14.3 20.4-20.5 32.3-2.7 5.2-6.3 12.2-9.4 19.7-.4-1.7-1.7-3.2-3.8-3.7-3.4-.7-6.9-1-10.3-.6-2.7.3-4.9 2-5.4 4.6-.8 2-.6 4.7 1.1 6.1 4.6 3.7 11.2 4.2 15.8.3-4.3 12.8-6 26.3 1.4 35.2l.5 5.7c2.3 24.7 37.3 25.3 38.9 0 1.2-20 6-38.5 13.8-56.9 1.5-3.5 1.7-6.6 1.3-9.5 4.9-8.2 10.4-15.5 20.2-18.7 5-1.7 8.5-4.7 10.6-8.4 17.3.3 34.7.1 52-1 9.7-.6 21.9.2 30.9-4.2 2-1 3.6-2.1 4.9-3.2.7.9 1.4 1.8 2.3 2.7 7.1 6.8 14.6 9.3 21.2 8.9 1.4.3 2.9.5 4.6.5 6.2 0 10.9-2.4 14-6.1 1.6-1.5 2.8-3.4 3.7-5.3 4.8-7.8 3.6-19.6-3.8-25.8z"/><path d="M209.8 53.5c-.4-.9-.8-1.6-1.3-2.4.3-.4.6-.8.7-1.4.4-1.2.3-2.4 0-3.5 1.7-5.1-3.3-9.7-8.5-6.7-1.2.7-1.7 1.7-1.8 2.7-3.5-1.8-7.4-3-11.6-3.7.4-.7.6-1.6.3-2.6-1.4-5.3-8.8-7.5-12.4-3-1.3 1.5-1.1 3.3-.3 4.7h-1.7c-4.9 0-5 7.7 0 7.7 11.1 0 24.6.2 29.7 12.1 2.3 4.5 8.9.6 6.9-3.9z"/><path d="M347.1 259.4c-2.1-12-13.8-24.6-22.6-32.4-5.1-4.5-10.9-7.8-16.5-11.7-11.4-7.8-12.8-19-14.7-31.8-3.1-20.9-10.1-40.4-17.5-60.1 0-.5-.1-1-.2-1.6-1-4.8-4.8-8.3-9.6-11 1.9-.3 3.8-.7 5.5-1.4 9.1-3.5 12.5-14.8 12.4-23.8-.4-26.8-33.6-34.3-54.4-39.5-.7-.2-1.3-.1-1.9 0-.2-4.5-.8-9-1.6-13.3 0-.1-.1-.1-.1-.2 2.7-5.8 6.2-14.8-.4-18.5-6.3-3.5-12.3 2-17.1 6.4-7.6-3-15.3-4.3-23.3-3.9 1.8-6.4 1.8-14.2-5.9-16.4-8.2-2.2-15.8 7.6-19.6 14-.7.1-1.3.4-1.9 1.1-6.4 7-12.2 15.4-14.5 24.6-22.4 1.1-74.5 8.2-73.9 38.6.2 9.7 5.7 16.5 14 21.2-9.3 12-19.3 26.9-26.3 42.6-3.1-2.7-8.1-3-12.1-2.9-5.3.2-10.9 1.7-13.5 6.9-2.4 4.8-.5 10.8 3.2 14.5 3.9 3.9 9.4 5 14.8 5.4-3.6 20.4 1.1 40.2 22.3 54.6-3.2 2.2-6.8 4.2-10.8 5.8-20.8 8.3-42.8 11-59.8 26.9-2.3 2.1-.7 6.9 2.7 6.6 7.8-.9 16.8-2.2 24.5 0 6.8 2 11 6.6 17.3 9 5.1 1.9 9.8 2.2 15.2 1.3 11.4-2 19.4-10.5 29.9-14.3 19.9-7.2 28.6 2 44.8 9.8 6.6 3.2 13.5 4.9 20.9 4 2.6-.3 9-3.7 11.3-3.2 8.3 1.6 7 8.7 7.5 13.9.8 9.1-.6 17.8 1.7 26.9 2.9 11.5 10.3 20.9 13.1 32.3.5 2.2 3.6 3.7 5.6 2.3 19.4-14 41.1-13.7 43.6-41.8 1.1-12.2-5.6-39.3 23-33.6 4.7.9 10.4 5.9 15.5 7.4 14.5 4.1 45.8-.3 47.7 20.7.3 3.5 5.3 5.6 7.2 1.9 5.3-10.6 16.7-24.7 14.5-37.3zM227.5 53.6c11.4 2.9 29.7 6.6 40.3 15.2-2.9-1.5-7.2 1.7-5.1 5.3l3 5.1c2.5 4.3 9.1.4 6.6-3.9l-3-5.1c-.1-.2-.3-.4-.5-.6 2 1.8 3.8 3.7 5 5.9 6.5 12 1.3 25.6-13 27.4-8.2 1.1-18.5-1.2-26.9-2.7.8-.7 1.5-1.5 2.3-2.1 4-2.9.1-9.5-3.9-6.6-2.7 1.9-5.1 4-7.3 6.5-.3.4-.5.8-.7 1.2-3.5-.5-6.9-.9-10.4-1 8.6-12.1 25.6-12.8 39.6-11 4.9.6 4.8-7.1 0-7.7-18.1-2.3-39.4 0-48.4 18-.1.3-.1.5-.2.8-6.9.4-13.7 1.7-20.6 4.1-.5.2-.8.4-1.2.7-1.9.2-3.8.5-5.7.8-1.7-1.8-3.6-3.5-5.5-5.2 2.9-3.6 3.7-7.8-.9-12.6-1.9-2.1-4.5-3.4-7.2-4.3 2.3-1.6 1.8-4.5.2-6 4.3 1.7 8.9 2.9 13.2 3.9 14.1 3.3 30.2 5.5 41.3-6 5.7-5.7 8.2-12.7 9-20.1zm-41.8 59.9c-.7-.9-1.5-1.7-2.2-2.5 7.2-1 14.4-1.4 21.5-.7.2.5.5.9 1 1.3 4.3 3.7 8.2 7.7 12 11.9-6.4.7-12.9 1.6-19.2 3-7.1 1.5-7 1.2-11.6-4.5-.7-.9-1.5-1.8-2.2-2.7 1.5-1.4 2.3-3.8.7-5.8zm5.3 22.3c3.5.7 8.2-1.6 11.7-2.3 7.6-1.5 15.3-2.5 23.1-3.2 3.5-.3 4.9-3.9 2.7-6.6-4.6-5.6-9.5-10.7-14.8-15.5.3-.8.5-1.6.3-2.3 4.5.2 9.1.6 13.8 1.5 9.7 1.9 35.5 6 35.5 16.5 0 9.1-7.7 10.1-16 12.9-5 1.6-10.1 2.9-15.2 3.8-13.4 2.5-27 2.7-40.5 2.2-10.8-.4-21.5-1.5-32.3-2.5-7.3-.7-33.8.7-38.7-4-15.5-14.9 35.4-20.6 38.4-21.1 4.1-.6 8.2-1.4 12.4-2.2 0 .9.2 1.7.9 2.6 4.4 5.5 11.2 18.7 18.7 20.2zM163 20.9c1-.1 2-.6 2.7-1.8 2.1-3.8 5.1-8.1 8.9-10.4 3.4-2 4.1.1 3.9 2.7-1.3-1.7-3.7-2.4-5.5-.4-.2.3-.4.5-.6.8v.1c-.8 1.1-1.5 2.2-1.7 3.6v1.1c0 .3 0 .6.1.8l.3.6c.1.2.2.4.4.6.2.3.5.5.8.8l.1.1c1.1.8 2.4 1 3.6.5l.6-.3c.1 0 .1-.1.2-.1.1-.1.2-.1.2-.2.1.4.2.8.4 1.2.2 2.1 2 4.3 4.7 3.9 8.1-1.1 16.3 0 23.9 3.2 1.3 1.5 3.7 2.2 5.7.5 1.5-1.3 3-2.6 4.5-3.8 1-.8 3.7-3.8 5-3.5 1.2.3.5 1.8.1 3.1-.4-.1-.8-.3-1.3-.3-.6 0-1.1.1-1.6.3-.1.1-.2.2-.4.2-.3.2-.5.3-.8.6-.1.1-.2.3-.3.4-.1.2-.3.4-.4.7-.1.2-.1.4-.2.7 0 .2-.1.4-.1.6v.9c0 .1 0 .2.1.3.1.4.2.7.3 1l.1.1c.2.3.4.7.7.9.3.3.7.5 1.1.6-.4 1.1-.3 2.2.2 3.1 0 .3-.1.5 0 .8 2.3 10.9 3.2 24.7-5.4 33.3-3.2 3.3-7 5-10.9 5.8 1.1-2 .7-4.8-2.1-5.7-3.9-1.2-7.8-2.6-11.7-3.9.7-1.7 1.5-3.4 2.2-5 .2-.4.2-.8.3-1.2 1.9 0 3.9-.2 5.8-1.1 2.4-1.1 2.2-4.3.8-6-2.9-3.4-7.1-4.6-11.4-3.8-.7 0-1.3-.1-2-.1-2.6.2-5.2 3.3-3.3 5.8.9 1.2 2 2.2 3.1 3-.9 2-1.8 4-2.6 6-5.7-2.1-11.5-4.2-17.1-6.5-4.6-1.8-6.6 5.6-2 7.4 10.8 4.3 21.7 8.2 32.8 11.7-5.2-.2-10.5-1.2-15.4-2.4-7.4-1.7-15.1-3.6-21.2-8.3-16.4-12.5-6-31.6 4.4-43zM81.5 87.8C70.7 69.5 91 59.3 105.1 54.4c12-4.1 24.5-6.1 37.2-6.7 0 3.5.6 7.1 2 10.7 3.3 8.3 9.9 13.2 17.6 16.5-.6 0-1.3.1-2 .5-1.9 1.2-3.1 2.7-3.7 4.8-.1 0-.3 0-.4-.1-.7-.1-1.6-.1-2.4-.2-.1-.5-.3-1.1-.7-1.7-2.4-3.2-4.8-6.4-7.3-9.6-2.9-3.9-9.6-.1-6.6 3.9 1.8 2.4 3.7 4.9 5.5 7.3-6.8 0-14.1-.4-17.3-3.8-3.4-3.6-8.9 1.9-5.4 5.4 5.3 5.5 14.7 5.1 21.8 5.4 5 .2 11.3-.3 15.9 1.6 6.7 2.8 5.9 5.9 3.1 8.5-.2-.3-.5-.7-.9-1-2.9-2.2-6.1-3.8-9.6-5.1-4.7-1.7-6.7 5.7-2 7.4 2.1.8 4 1.8 5.9 3.1-.7.4-1.3.7-1.8 1-.4.3-.7.6-1 .9-12.1-.5-24.2-1.4-36.2-3.1-9.9-1.1-29.6-2.7-35.3-12.3zM51 158.6c-5-.4-14.8-1.8-13-8.4 1.1-4 12.8-4.7 14.4-1.3.3.7.8 1.1 1.2 1.4-.9 2.8-1.8 5.6-2.6 8.3zm37.6-53.4c.6-.8.8-1.7.8-2.5 13.9 5.7 32.4 7.3 47 7.9-12.3 1.6-28 4.7-30.8 16.7-.5 2-.4 3.7-.1 5.3-.1.3-.3.5-.3.9-5 29-6 62.9-27.4 82.6-.3-.4-.7-.9-1.2-1.2-43.3-28.4-10.7-80.4 12-109.7zm249.5 163.6c-1.2 5.2-4.7 11-7.9 16.3-4.1-7.5-12.2-11.9-21.5-14.2-11.3-2.8-23-1.9-33.9-6.4-7.2-3-13.3-9.2-21.4-9.2-11.9 0-19.1 10.8-21.1 21.4-3.1 16.5 4 35.3-14.5 45.6-7.3 4.1-14.8 6.4-22 10.5-3.8-11.2-10.7-21-12.5-33.2-1.7-10.8 5.8-27.3-.4-36.8-1.7-2.6-4.1-4.3-7.2-5-3.9-.8-6.5.9-10.1 1.4-12.3 1.7-19.6 3.7-31-2.5-17.2-9.5-28.7-16.5-47.9-7.2-5.7 2.8-10.9 7.2-16.8 9.6-22.3 9-20.4 2.1-32.8-3.7-6.7-3.1-13.5-4-20.5-3.9 20.2-12 45.8-12.8 65-27.4 24.2-18.4 25.8-54.9 30.1-83.3 2.6 1.5 5.8 2.5 8.9 3.2 21.6 4.3 45.5 5.2 67.6 6.3 20.4 1 41.5.4 61.1-6.1 6.1-2 16.4-5.1 22.3-10.6 5.4 14.6 10.5 29.3 13.3 44.6 2 11.1 1.6 24.1 8.2 33.8 7.9 11.5 23 16.3 32.4 26.6 7.7 8.4 15.5 18 12.6 30.2z"/><path d="M204.8 114.1c-2 .7-3.9 1.3-5.9 2-.2 0-.3-.1-.5-.1-3.1.1-5.7.8-8.5 2.1-4.5 2-.6 8.6 3.9 6.6 1.4-.6 2.7-.9 4.2-1 .7.2 1.4.3 2.2 0 2.2-.7 4.4-1.5 6.6-2.2 4.7-1.6 2.7-9.1-2-7.4zm-70.4 54.4c-2.8 12.5-5.9 26.3-17.1 34.1-7.6 5.3-15.8 7.9-20.7 16.3-2.5 4.3 4.1 8.2 6.6 3.9 6-10.3 19.9-12.5 27.2-22.1 6.6-8.7 9.1-19.6 11.4-30 1-5-6.4-7.1-7.4-2.2zm36.2-.8c-5.3 13.7-10.2 27.3-18.4 39.6-5.9 8.9-10.1 17.1-7 27.8 1.4 4.7 8.8 2.7 7.4-2-3.9-13.5 9.7-25.7 14.9-37.1 3.9-8.6 7.1-17.5 10.5-26.2 1.8-4.7-5.7-6.7-7.4-2.1zm39.5 10.1c-4.9 13.4-9.8 27.2-9.4 41.7.1 5.6 1.3 10.8 2.1 16.3 1.9 13.6-.2 24.7-4.3 37.5-1.5 4.7 5.9 6.7 7.4 2 4.3-13.4 6.6-24.6 4.8-38.6-2.7-21.1-.3-37 6.9-56.9 1.6-4.6-5.8-6.6-7.5-2zm30.7-16.2v24.2c0 4.9 7.7 5 7.7 0v-24.2c-.1-4.9-7.7-4.9-7.7 0zm68.4 88.7c-9.5-12.2-27.1-10.1-36.1-23.3-11.4-16.6-4.7-40.3-3.8-58.8.2-4.9-7.5-4.9-7.7 0-.9 19.2-6.4 40.4 2.6 58.5 3.1 6.3 7.5 11.6 13.6 15.2 8.8 5.2 19.2 5.1 26 13.8 3 3.9 8.4-1.5 5.4-5.4zm-69.9-36.8c-2.6 8.9-7.5 15.4-13.1 22.6-4.4 5.7-7.6 11.3-7.9 18.5-.2 4.9 7.5 4.9 7.7 0 .4-8.3 6.7-14.1 11.4-20.3 4.3-5.7 7.3-11.9 9.4-18.8 1.3-4.7-6.1-6.7-7.5-2zm-53.4-10.8c-8.5 7.8-14.7 17.3-18.6 28.2-1.7 4.7 5.8 6.7 7.4 2 3.4-9.6 9.1-17.9 16.6-24.8 3.7-3.3-1.7-8.8-5.4-5.4zM124.8 55.2c-2.7.5-5.4 1-8 1.5-4.8.9-2.8 8.3 2 7.4 2.7-.5 5.4-1 8-1.5 4.9-.9 2.9-8.3-2-7.4zm-28.7 9.3c-1.5 1.7-3 3.4-4.5 5-3.3 3.7 2.1 9.1 5.4 5.4 1.5-1.7 3-3.4 4.5-5 3.4-3.7-2-9.1-5.4-5.4zm10.3 5.7c-.2.5-.5 1-.7 1.5-2.2 4.4 4.4 8.3 6.6 3.9.2-.5.5-1 .7-1.5 2.2-4.4-4.4-8.3-6.6-3.9zm1 17.6c-1-1.2-1.9-2.4-2.9-3.7-3.1-3.9-8.5 1.6-5.4 5.4 1 1.2 1.9 2.4 2.9 3.7 3 3.9 8.4-1.6 5.4-5.4zm15.2-1c-1.1.2-2.2 0-3.2-.5-4.7-1.6-6.7 5.8-2 7.4 2.5.8 4.7.8 7.2.5 5-.7 2.9-8.1-2-7.4zm-33.8 23.8c-1.2 1.7-2.4 3.4-3.7 5.1-2.9 4 3.8 7.9 6.6 3.9 1.2-1.7 2.4-3.4 3.7-5.1 2.9-4.1-3.7-7.9-6.6-3.9zm8.1 8.1l-2.2 3.7c-2.5 4.3 4.1 8.1 6.6 3.9l2.2-3.7c2.6-4.3-4-8.2-6.6-3.9zm-3 23.4c-.7 1.7-1.5 3.4-2.2 5.1-1.9 4.5 4.7 8.4 6.6 3.9.7-1.7 1.5-3.4 2.2-5.1 2-4.5-4.6-8.5-6.6-3.9zm-12.6-12.2c-1 2.7-2.1 5.3-3.1 8-1.8 4.6 5.6 6.6 7.4 2 1-2.7 2.1-5.3 3.1-8 1.8-4.6-5.6-6.6-7.4-2zm-18.4 21.9l-3 8.8c-1.6 4.7 5.8 6.7 7.4 2 1-2.9 2-5.8 3-8.8 1.6-4.6-5.8-6.6-7.4-2zm6.7 30.3c-.4-4.9-8.1-4.9-7.7 0l.7 8.8c.4 4.9 8.1 4.9 7.7 0l-.7-8.8zm7.5-18c-1.3 2.5-2 4.9-2 7.8-.1 4.9 7.6 4.9 7.7 0 0-1.5.2-2.6.9-3.9 2.3-4.4-4.3-8.3-6.6-3.9zm11.3-2.8l-1.5 5.1c-1.4 4.8 6 6.8 7.4 2l1.5-5.1c1.4-4.7-6-6.7-7.4-2zm-6.7 24.5v8.8c0 4.9 7.7 4.9 7.7 0v-8.8c0-4.9-7.7-4.9-7.7 0zm-.2 18.6c-1-1.5-2-2.9-2.9-4.4-2.7-4.1-9.4-.3-6.6 3.9 1 1.5 2 2.9 2.9 4.4 2.7 4.1 9.4.2 6.6-3.9zm96.4-114.9c-.5 1.2-1 2.5-1.4 3.7-1.8 4.6 5.6 6.6 7.4 2 .5-1.2 1-2.5 1.4-3.7 1.8-4.5-5.6-6.5-7.4-2zm15.2-1.9v7.3c0 4.9 7.7 5 7.7 0v-7.3c0-4.9-7.7-5-7.7 0zm48.1-26.4l-5.1-1.5c-4.8-1.4-6.8 6-2 7.4l5.1 1.5c4.7 1.3 6.8-6.1 2-7.4zm-11 11c-1.2-.5-2.4-1-3.7-1.5-4.6-1.8-6.6 5.6-2 7.4 1.2.5 2.4 1 3.7 1.5 4.5 1.9 6.5-5.5 2-7.4zm24.4-.4c-.7-.5-1.5-1-2.2-1.5-4.1-2.7-8 3.9-3.9 6.6l2.2 1.5c4.2 2.7 8-3.9 3.9-6.6zm9.5 16.1c-.2.5-.5 1-.7 1.5-2.2 4.4 4.4 8.3 6.6 3.9.2-.5.5-1 .7-1.5 2.3-4.4-4.4-8.3-6.6-3.9zm-11.4 1.7h-4.4c-4.9 0-5 7.7 0 7.7h4.4c4.9 0 4.9-7.7 0-7.7z"/></svg>